An Idiot Abroad is a 2010 light entertainment travel documentary television series broadcast on Sky 1, and a spin-off book published by Canongate Books, featuring Karl Pilkington, Ricky Gervais and Stephen Merchant. The central premise of both the television series and the book is that Pilkington has no interest in global travel and so Merchant and Gervais make him travel, for education and comedy purposes respectively, while themselves staying in London and monitoring his progress. The series has 7 episodes covering China, India, Jordan, Mexico, Egypt, Brazil and Peru.

Recoded to MP4 Format For The IPhone 4.

File Type: MP4
Resolution: IPhone Compliant 480x320
Video Bitrate: 768knps
Sound: AAC Stereo  IPhone Compatible
Bitrate: 128kbps

Ive included full media info from one of episodes below...
Enjoy

TheBlacknight



Format                           : MPEG-4
Format profile                   : Base Media
Codec ID                         : isom
File size                        : 273 MiB
Duration                         : 44mn 3s
Overall bit rate                 : 867 Kbps
Movie name                       : An Idiot Abroad S01E01
Writing application              : Lavf52.13.0

Video
ID                               : 1
Format                           : AVC
Format/Info                      : Advanced Video Codec
Format profile                   : Baseline@L1.3
Format settings, CABAC           : No
Format settings, ReFrames        : 1 frame
Codec ID                         : avc1
Codec ID/Info                    : Advanced Video Coding
Duration                         : 44mn 3s
Bit rate mode                    : Variable
Bit rate                         : 766 Kbps
Width                            : 480 pixels
Height                           : 320 pixels
Display aspect ratio             : 3:2
Frame rate mode                  : Constant
Frame rate                       : 29.970 fps
Color space                      : YUV
Chroma subsampling               : 4:2:0
Bit depth                        : 8 bits
Scan type                        : Progressive
Bits/(Pixel*Frame)               : 0.166
Stream size                      : 241 MiB (88%)

Audio
ID                               : 2
Format                           : AAC
Format/Info                      : Advanced Audio Codec
Format profile                   : LC
Codec ID                         : 40
Duration                         : 44mn 3s
Bit rate mode                    : Variable
Bit rate                         : 96.0 Kbps
Channel(s)                       : 2 channels
Channel positions                : Front: L R
Sampling rate                    : 48.0 KHz
Compression mode                 : Lossy
Stream size                      : 30.2 MiB (11%)

